PERFORMER "Roger Sanchez"
TITLE "Essential Mix (2008-06-28) [TMB]"
FILE "2008-06-28 - EM - Roger Sanchez (Mp3).mp3" MP3
  TRACK 01 AUDIO
    PERFORMER "Essential Mix"
    TITLE "Intro"
    INDEX 01 00:00:00
  TRACK 02 AUDIO
    PERFORMER "Blaze"
    TITLE "My Beat (Accapella)"
    INDEX 01 01:20:00
  TRACK 03 AUDIO
    PERFORMER "Robot Man"
    TITLE "Ready For This (Daley Padley Mix)"
    INDEX 01 05:28:00
  TRACK 04 AUDIO
    PERFORMER "Midnite Sleeze"
    TITLE "Twisted Disco (Sman's Twist That Bellocca Edit)"
    INDEX 01 07:14:00
  TRACK 05 AUDIO
    PERFORMER "Unknown"
    TITLE "Can't Live Without Your Groove (Massimo Santucci Mix)"
    INDEX 01 12:28:00
  TRACK 06 AUDIO
    PERFORMER "The Transatlatins feat. La India"
    TITLE "I Can't Live Without Music (Sman Mix)"
    INDEX 01 19:06:00
  TRACK 07 AUDIO
    PERFORMER "Antoine Clamaran"
    TITLE "Sofa King"
    INDEX 01 25:48:00
  TRACK 08 AUDIO
    PERFORMER "Daft Punk"
    TITLE "Harder, Faster, Stronger (Accapella)"
    INDEX 01 26:56:00
  TRACK 09 AUDIO
    PERFORMER "Flash Republic"
    TITLE "Star (Prok N Fitch Dub)"
    INDEX 01 30:14:00
  TRACK 10 AUDIO
    PERFORMER "Roger Sanchez feat. Terri B & Burn"
    TITLE "Bang That Box (Sman's Release Mx)"
    INDEX 01 35:28:00
  TRACK 11 AUDIO
    PERFORMER "Stephan & Luke-Show"
    TITLE "Nari & Milani Mix"
    INDEX 01 40:25:00
  TRACK 12 AUDIO
    PERFORMER "Mia"
    TITLE "Screams In The Night (Sman Edit)"
    INDEX 01 45:32:00
  TRACK 13 AUDIO
    PERFORMER "Hatiras feat. Flipside"
    TITLE "Tribute (Accapella)"
    INDEX 01 48:44:00
  TRACK 14 AUDIO
    PERFORMER "Dimitri Vegas & Like Mike"
    TITLE "Love Can't Turn Around ‘08"
    INDEX 01 49:50:00
  TRACK 15 AUDIO
    PERFORMER "Eddie Thoneick"
    TITLE "Freakin You (Dohr & Mangold Mix)"
    INDEX 01 52:47:00
  TRACK 16 AUDIO
    PERFORMER "DJ Jean"
    TITLE "The Launch (Bart B More Mix)"
    INDEX 01 58:38:00
  TRACK 17 AUDIO
    PERFORMER "Louis Botella"
    TITLE "I Feel Love (Nari & Milani Mix)"
    INDEX 01 65:20:00
  TRACK 18 AUDIO
    PERFORMER "Outwork feat. Mr. Gee"
    TITLE "Thank God 4 Music (Jesse Garcia Mix)"
    INDEX 01 70:20:00
  TRACK 19 AUDIO
    PERFORMER "Lopez, Amez & Gelderblom"
    TITLE "Strike Me Down (DJ Pedro & Stephan Mix)"
    INDEX 01 75:46:00
  TRACK 20 AUDIO
    PERFORMER "Danny Tenaglia"
    TITLE "Music Is The Answer (Accapella)"
    INDEX 01 80:22:00
  TRACK 21 AUDIO
    PERFORMER "Tv Rock"
    TITLE "Been A Long Time (Laidback Luke Mix)"
    INDEX 01 87:13:00
  TRACK 22 AUDIO
    PERFORMER "Cevin Fisher"
    TITLE "Burnin Up (Prok N Fitch Mix)"
    INDEX 01 90:02:00
  TRACK 23 AUDIO
    PERFORMER "Guru Josh Project"
    TITLE "Infinity '08 (Jerome Isma-Ae Mix)"
    INDEX 01 92:27:00
  TRACK 24 AUDIO
    PERFORMER "Billie Ray Martin"
    TITLE "Your Loving Arms (Accapella)"
    INDEX 01 97:14:00
  TRACK 25 AUDIO
    PERFORMER "Phunk Investigation vs. Boy George"
    TITLE "Generations of Love 2008 (DJ Dove Mix)"
    INDEX 01 102:25:00
  TRACK 26 AUDIO
    PERFORMER "Exacta & Valentino feat. Dragonfly"
    TITLE "Turn Me On (Klement B. Mix)"
    INDEX 01 105:04:00
  TRACK 27 AUDIO
    PERFORMER "Roland Clarke Vs Christian Falero"
    TITLE "Colors Of My Beat"
    INDEX 01 109:47:00
  TRACK 28 AUDIO
    PERFORMER "DJ Rooster & Peralta"
    TITLE "Shake It (Jesse Garcia Mix)"
    INDEX 01 110:56:00
  TRACK 29 AUDIO
    PERFORMER "Eddie Amador"
    TITLE "Release Yourself (Accapella)"
    INDEX 01 114:13:00